<svg width="1651" height="992" xmlns="http://www.w3.org/2000/svg" xmlns:xlink="http://www.w3.org/1999/xlink" xml:space="preserve" overflow="hidden"><defs><clipPath id="clip0"><rect x="3523" y="3600" width="1651" height="992"/></clipPath></defs><g clip-path="url(#clip0)" transform="translate(-3523 -3600)"><rect x="3524" y="3601" width="1648" height="989" fill="#FFFFFF"/><g><path d="M3574.5 3887.5 3574.5 4492.5M3883.63 3887.5 3883.63 4492.5M4193.64 3887.5 4193.64 4492.5M4502.65 3887.5 4502.65 4492.5M4811.66 3887.5 4811.66 4492.5M5121.5 3887.5 5121.5 4492.5" stroke="#D9D9D9" stroke-width="3.4375" stroke-linejoin="round" stroke-miterlimit="10" fill="none"/></g><g><path d="M3648.12 4415.15 3682.12 4415.15 3682.12 4492 3648.12 4492ZM3958.13 4439.15 3991.13 4439.15 3991.13 4492 3958.13 4492ZM4267.14 4353.14 4301.14 4353.14 4301.14 4492 4267.14 4492ZM4577.15 4459.15 4610.15 4459.15 4610.15 4492 4577.15 4492ZM4886.16 4457.15 4920.16 4457.15 4920.16 4492 4886.16 4492Z" fill="#156082"/></g><g><path d="M3712.12 4446.15 3746.12 4446.15 3746.12 4492 3712.12 4492ZM4022.13 4356.14 4055.13 4356.14 4055.13 4492 4022.13 4492ZM4331.14 4454.15 4365.14 4454.15 4365.14 4492 4331.14 4492ZM4641.15 4114.14 4674.15 4114.14 4674.15 4492 4641.15 4492ZM4950.16 3985.13 4983.16 3985.13 4983.16 4492 4950.16 4492Z" fill="#E97132"/></g><g><path d="M3776.12 4322.14 3809.12 4322.14 3809.12 4492 3776.12 4492ZM4085.13 4428.15 4119.14 4428.15 4119.14 4492 4085.13 4492ZM4395.14 4467.15 4428.15 4467.15 4428.15 4492 4395.14 4492ZM4704.15 4348.14 4738.16 4348.14 4738.16 4492 4704.15 4492ZM5014.16 4456.15 5047.17 4456.15 5047.17 4492 5014.16 4492Z" fill="#196B24"/></g><g><path d="M3574.5 4492.5 5121.5 4492.5" stroke="#D9D9D9" stroke-width="3.4375" stroke-linejoin="round" stroke-miterlimit="10" fill="none" fill-rule="evenodd"/></g><g><text fill="#7F7F7F" font-family="Aptos Narrow,Aptos Narrow_MSFontService,sans-serif" font-weight="400" font-stretch="semi-condensed" font-size="37" transform="matrix(6.12323e-17 -1 1 6.12323e-17 3676.96 4387)">766</text></g><g><text fill="#7F7F7F" font-family="Aptos Narrow,Aptos Narrow_MSFontService,sans-serif" font-weight="400" font-stretch="semi-condensed" font-size="37" transform="matrix(6.12323e-17 -1 1 6.12323e-17 3986.44 4412)">522</text></g><g><text fill="#7F7F7F" font-family="Aptos Narrow,Aptos Narrow_MSFontService,sans-serif" font-weight="400" font-stretch="semi-condensed" font-size="37" transform="matrix(6.12323e-17 -1 1 6.12323e-17 4295.92 4326)">1375</text></g><g><text fill="#7F7F7F" font-family="Aptos Narrow,Aptos Narrow_MSFontService,sans-serif" font-weight="400" font-stretch="semi-condensed" font-size="37" transform="matrix(6.12323e-17 -1 1 6.12323e-17 4605.4 4432)">328</text></g><g><text fill="#7F7F7F" font-family="Aptos Narrow,Aptos Narrow_MSFontService,sans-serif" font-weight="400" font-stretch="semi-condensed" font-size="37" transform="matrix(6.12323e-17 -1 1 6.12323e-17 4914.88 4430)">343</text></g><g><text fill="#7F7F7F" font-family="Aptos Narrow,Aptos Narrow_MSFontService,sans-serif" font-weight="400" font-stretch="semi-condensed" font-size="37" transform="matrix(6.12323e-17 -1 1 6.12323e-17 3740.6 4419)">456</text></g><g><text fill="#7F7F7F" font-family="Aptos Narrow,Aptos Narrow_MSFontService,sans-serif" font-weight="400" font-stretch="semi-condensed" font-size="37" transform="matrix(6.12323e-17 -1 1 6.12323e-17 4050.08 4329)">1348</text></g><g><text fill="#7F7F7F" font-family="Aptos Narrow,Aptos Narrow_MSFontService,sans-serif" font-weight="400" font-stretch="semi-condensed" font-size="37" transform="matrix(6.12323e-17 -1 1 6.12323e-17 4359.56 4426)">380</text></g><g><text fill="#7F7F7F" font-family="Aptos Narrow,Aptos Narrow_MSFontService,sans-serif" font-weight="400" font-stretch="semi-condensed" font-size="37" transform="matrix(6.12323e-17 -1 1 6.12323e-17 4669.04 4087)">3747</text></g><g><text fill="#7F7F7F" font-family="Aptos Narrow,Aptos Narrow_MSFontService,sans-serif" font-weight="400" font-stretch="semi-condensed" font-size="37" transform="matrix(6.12323e-17 -1 1 6.12323e-17 4978.52 3958)">5030</text></g><g><text fill="#7F7F7F" font-family="Aptos Narrow,Aptos Narrow_MSFontService,sans-serif" font-weight="400" font-stretch="semi-condensed" font-size="37" transform="matrix(6.12323e-17 -1 1 6.12323e-17 3804.23 4294)">1689</text></g><g><text fill="#7F7F7F" font-family="Aptos Narrow,Aptos Narrow_MSFontService,sans-serif" font-weight="400" font-stretch="semi-condensed" font-size="37" transform="matrix(6.12323e-17 -1 1 6.12323e-17 4113.72 4401)">634</text></g><g><text fill="#7F7F7F" font-family="Aptos Narrow,Aptos Narrow_MSFontService,sans-serif" font-weight="400" font-stretch="semi-condensed" font-size="37" transform="matrix(6.12323e-17 -1 1 6.12323e-17 4423.2 4439)">249</text></g><g><text fill="#7F7F7F" font-family="Aptos Narrow,Aptos Narrow_MSFontService,sans-serif" font-weight="400" font-stretch="semi-condensed" font-size="37" transform="matrix(6.12323e-17 -1 1 6.12323e-17 4732.68 4320)">1432</text></g><g><text fill="#7F7F7F" font-family="Aptos Narrow,Aptos Narrow_MSFontService,sans-serif" font-weight="400" font-stretch="semi-condensed" font-size="37" transform="matrix(6.12323e-17 -1 1 6.12323e-17 5042.16 4428)">361</text></g><g><text fill="#595959" font-family="Aptos Narrow,Aptos Narrow_MSFontService,sans-serif" font-weight="400" font-stretch="semi-condensed" font-size="37" transform="matrix(1 0 0 1 3680.8 4549)">2020</text></g><g><text fill="#595959" font-family="Aptos Narrow,Aptos Narrow_MSFontService,sans-serif" font-weight="400" font-stretch="semi-condensed" font-size="37" transform="matrix(1 0 0 1 3990.28 4549)">2021</text></g><g><text fill="#595959" font-family="Aptos Narrow,Aptos Narrow_MSFontService,sans-serif" font-weight="400" font-stretch="semi-condensed" font-size="37" transform="matrix(1 0 0 1 4299.76 4549)">2022</text></g><g><text fill="#595959" font-family="Aptos Narrow,Aptos Narrow_MSFontService,sans-serif" font-weight="400" font-stretch="semi-condensed" font-size="37" transform="matrix(1 0 0 1 4609.24 4549)">2023</text></g><g><text fill="#595959" font-family="Aptos Narrow,Aptos Narrow_MSFontService,sans-serif" font-weight="400" font-stretch="semi-condensed" font-size="37" transform="matrix(1 0 0 1 4918.72 4549)">2024</text></g><g><text fill="#595959" font-family="Aptos Narrow,Aptos Narrow_MSFontService,sans-serif" font-weight="700" font-stretch="semi-condensed" font-size="73" transform="matrix(1 0 0 1 3768.64 3705)">FEHLENDE LUFTQUALITÄTSDATEN</text></g><g><rect x="3758" y="3787" width="23" height="22" fill="#156082"/></g><g><text fill="#595959" font-family="Aptos Narrow,Aptos Narrow_MSFontService,sans-serif" font-weight="400" font-stretch="semi-condensed" font-size="41" transform="matrix(1 0 0 1 3790.36 3810)">Stampenbachstrasse</text></g><g><rect x="4208" y="3787" width="23" height="22" fill="#E97132"/></g><g><text fill="#595959" font-family="Aptos Narrow,Aptos Narrow_MSFontService,sans-serif" font-weight="400" font-stretch="semi-condensed" font-size="41" transform="matrix(1 0 0 1 4240.69 3810)">Rosengartenstrasse</text></g><g><rect x="4636" y="3787" width="22.9995" height="22" fill="#196B24"/></g><g><text fill="#595959" font-family="Aptos Narrow,Aptos Narrow_MSFontService,sans-serif" font-weight="400" font-stretch="semi-condensed" font-size="41" transform="matrix(1 0 0 1 4668.29 3810)">Schimmelstrasse</text></g><rect x="3524.5" y="3601.5" width="1648" height="989" stroke="#D9D9D9" stroke-width="3.4375" stroke-linejoin="round" stroke-miterlimit="10" fill="none"/></g></svg>